<?xml version="1.0" encoding="utf-8"?>
<!-- Generator: Adobe Illustrator 19.0.0, SVG Export Plug-In . SVG Version: 6.00 Build 0)  -->
<svg version="1.1" id="Capa_1" xmlns="http://www.w3.org/2000/svg" xmlns:xlink="http://www.w3.org/1999/xlink" x="0px" y="0px"
	 viewBox="-193 -3 800 800" style="enable-background:new -193 -3 800 800;" xml:space="preserve">
<style type="text/css">
	.st0{fill:#FFC23B;}
	.st1{fill:#91DC5A;}
</style>
<g>
	<path class="st0" d="M-75.7,439L21,535.7l177.5-177.5l-96.7-96.7L-75.7,439z M310.9,306.2L269.8,265c-7.8,4.3-16.8,6.7-26.4,6.7
		c-30.5,0-55.1-24.7-55.1-55.1c0-9.5,2.4-18.5,6.7-26.4L153.8,149c-10.7-10.7-28.3-10.7-39,0L-185,448.9c-10.7,10.7-10.7,28.3,0,39
		l41.2,41.2c7.8-4.3,16.8-6.7,26.4-6.7c30.5,0,55.1,24.7,55.1,55.1c0,9.5-2.4,18.5-6.7,26.4l41.2,41.2c10.7,10.7,28.3,10.7,39,0
		l299.8-299.8C321.7,334.4,321.7,316.9,310.9,306.2z M21,580l-141-141l221.7-221.7l141,141L21,580z"/>
</g>
<g>
	<path class="st1" d="M339.9,505.7h-53.2v-53.3c0-16.6-13.6-30.1-30.2-30.1c-16.6,0-30.1,13.5-30.1,30.1v53.3H173
		c-16.6,0-30.1,13.5-30.1,30c0,16.6,13.5,30.1,30.1,30.1h53.4v53.4c0,16.6,13.6,30.1,30.1,30.1c16.6,0,30.2-13.5,30.2-30.1v-53.4
		l53.2,0c16.6,0,30-13.5,30-30.1C370,519.1,356.5,505.7,339.9,505.7z"/>
</g>
<g>
	<path class="st1" d="M577,505.7h-53.2v-53.3c0-16.6-13.6-30.1-30.2-30.1c-16.6,0-30.1,13.5-30.1,30.1v53.3h-53.4
		c-16.6,0-30.1,13.5-30.1,30c0,16.6,13.5,30.1,30.1,30.1h53.4v53.4c0,16.6,13.6,30.1,30.1,30.1c16.6,0,30.2-13.5,30.2-30.1v-53.4
		l53.2,0c16.6,0,30-13.5,30-30.1C607,519.1,593.5,505.7,577,505.7z"/>
</g>
</svg>
