<?xml version="1.0" encoding="utf-8"?>
<!-- Generator: Adobe Illustrator 19.0.0, SVG Export Plug-In . SVG Version: 6.00 Build 0)  -->
<svg version="1.1" id="Capa_1" xmlns="http://www.w3.org/2000/svg" xmlns:xlink="http://www.w3.org/1999/xlink" x="0px" y="0px"
	 viewBox="-5 97 600 600" style="enable-background:new -5 97 600 600;" xml:space="preserve">
<style type="text/css">
	.st0{fill:#FFC23B;}
	.st1{fill:#91DC5A;}
</style>
<g>
	<path class="st0" d="M121.7,418.6L226,522.9l191.6-191.6L313.2,227L121.7,418.6z M538.9,275.2l-44.4-44.5
		c-8.4,4.6-18.1,7.2-28.5,7.2c-32.9,0-59.5-26.7-59.5-59.5c0-10.3,2.6-20,7.2-28.5l-44.5-44.5c-11.5-11.5-30.5-11.5-42.1,0
		L3.8,429.3c-11.5,11.5-11.5,30.5,0,42.1l44.4,44.4c8.4-4.6,18.1-7.2,28.5-7.2c32.9,0,59.5,26.7,59.5,59.5c0,10.3-2.6,20-7.2,28.5
		l44.5,44.5c11.5,11.5,30.5,11.5,42.1,0L539,317.2C550.6,305.7,550.6,286.8,538.9,275.2z M226,570.7L73.8,418.6l239.3-239.3
		l152.2,152.2L226,570.7z"/>
</g>
<g>
	<path class="st1" d="M562.6,542h-57.4v-57.5c0-17.9-14.7-32.5-32.6-32.5c-17.9,0-32.5,14.6-32.5,32.5V542h-57.6
		c-17.9,0-32.5,14.6-32.5,32.4c0,17.9,14.6,32.5,32.5,32.5h57.6v57.6c0,17.9,14.7,32.5,32.5,32.5c17.9,0,32.6-14.6,32.6-32.5v-57.6
		h57.4c17.9,0,32.4-14.6,32.4-32.5S580.4,542,562.6,542z"/>
</g>
</svg>
