<?xml version="1.0" encoding="utf-8"?>
<!-- Generator: Adobe Illustrator 19.0.0, SVG Export Plug-In . SVG Version: 6.00 Build 0)  -->
<svg version="1.1" id="Capa_1" xmlns="http://www.w3.org/2000/svg" xmlns:xlink="http://www.w3.org/1999/xlink" x="0px" y="0px"
	 viewBox="-49 141 512 512" style="enable-background:new -49 141 512 512;" xml:space="preserve">
<style type="text/css">
	.st0{fill:#FFC23B;}
</style>
<g>
	<path class="st0" d="M68.3,439l96.7,96.7l177.5-177.5l-96.7-96.7L68.3,439z M454.9,306.2L413.8,265c-7.8,4.3-16.8,6.7-26.4,6.7
		c-30.5,0-55.1-24.7-55.1-55.1c0-9.5,2.4-18.5,6.7-26.4L297.8,149c-10.7-10.7-28.3-10.7-39,0L-40.9,448.9c-10.7,10.7-10.7,28.3,0,39
		L0.2,529c7.8-4.3,16.8-6.7,26.4-6.7c30.5,0,55.1,24.7,55.1,55.1c0,9.5-2.4,18.5-6.7,26.4l41.2,41.2c10.7,10.7,28.3,10.7,39,0
		L455,345.1C465.7,334.4,465.7,316.9,454.9,306.2z M165,580L24,439l221.7-221.7l141,141L165,580z"/>
</g>
</svg>
