<?xml version="1.0" encoding="utf-8"?>
<!-- Generator: Adobe Illustrator 19.0.0, SVG Export Plug-In . SVG Version: 6.00 Build 0)  -->
<svg version="1.1" id="Layer_1" xmlns="http://www.w3.org/2000/svg" xmlns:xlink="http://www.w3.org/1999/xlink" x="0px" y="0px"
	 viewBox="0 0 278.3 155.1" style="enable-background:new 0 0 278.3 155.1;" xml:space="preserve">
<style type="text/css">
	.st0{fill:#FFFFFF;}
	.st1{stroke:#000000;stroke-width:2;stroke-miterlimit:10;}
	.st2{stroke:#000000;stroke-miterlimit:10;}
	.st3{fill:#EDEDED;}
	.st4{fill:#FFD819;}
	.st5{fill:#ED2927;}
	.st6{fill:#84C341;}
	.st7{fill:#456CB3;}
</style>
<path id="XMLID_1_" class="st0" d="M59.5,153.3L8.8,122.9c-4-2.4-4-6.3,0-8.7l50.7-30.4c4-2.4,10.5-2.4,14.4,0l50.7,30.4
	c4,2.4,4,6.3,0,8.7L74,153.3C70,155.7,63.5,155.7,59.5,153.3z"/>
<path id="XMLID_10_" class="st0" d="M7,29.8L55.9,0.9c3.8-2.3,7-0.1,7,4.7l0,62.1c0,4.9-3.1,10.7-7,12.9L7,109.5
	c-3.8,2.3-7,0.1-7-4.7l0-62.1C0,37.8,3.1,32,7,29.8z"/>
<g id="XMLID_7_">
	<path id="XMLID_8_" class="st1" d="M18.5,82V47.5l4.9-2.8l11.1,11.1c2.6,2.6,4.6,5,6.2,7.6l0.1-0.1c-0.4-4.4-0.5-8.5-0.5-13.9V35
		l4.2-2.4v34.5l-4.5,2.6l-11-11.2c-2.4-2.4-4.7-5.1-6.4-7.8l-0.2,0.1c0.3,4.2,0.4,8.3,0.4,14v14.7L18.5,82z"/>
</g>
<g id="XMLID_3_">
	<path id="XMLID_4_" class="st2" d="M62.1,135.9l-17.5-29h7.5l8.4,14.3c2.3,3.9,4.3,7.5,5.7,10.9h0.2c1.5-3.4,3.7-7,6.1-10.8
		l9.1-14.4h7.4l-19.2,29H62.1z"/>
</g>
<path id="XMLID_12_" class="st0" d="M147.4,82.3c-3.1,0-24.8,0-29.8,0c-1.5,0-3.3-0.1-5-0.1c-17.2,0-30.1-10.8-30.1-30.8
	c0-19.1,12.7-31,31.6-31c7.6,0,17.8,0,21.2,0V27c-5.6,0-15.8,0-20.9,0c-14.3,0-23.5,8.1-23.5,24.1c0,14.9,8.6,24.5,23.4,24.5
	c1,0,2.4,0.1,3.6,0.1c4.4,0,19.8,0,22.1,0v0c1.6,2.4,3.8,4.4,6.3,5.9L147.4,82.3z"/>
<path id="XMLID_14_" class="st0" d="M146.4,20.4v36.1c0,13.6,6.1,19.4,14.2,19.4c9,0,14.8-6,14.8-19.4V20.4h8v35.5
	c0,18.7-9.9,26.4-23,26.4c-12.5,0-21.9-7.1-21.9-26V20.4H146.4z"/>
<path id="XMLID_16_" class="st0" d="M193.6,20.4v53.1l-6.7,6.6V20.4H193.6z"/>
<path id="XMLID_18_" class="st0" d="M221.4,20.4h8v41.4c0,16.4-8,20.5-18.7,20.5c-2.9,0-19,0-21.6,0l6.7-6.5c2.6,0,11.3,0,14,0
	c7.2,0,11.6-2.4,11.6-14.6V20.4z"/>
<path id="XMLID_20_" class="st0" d="M234.6,20.4h8v27.9l24.1-27.9h9.9l-22.4,26.3l24.2,35.6h-9.5l-20.4-30.4l-5.9,6.8v23.6h-8V20.4z
	"/>
<g id="XMLID_23_">
	<path id="XMLID_11_" class="st3" d="M111.3,54.4h-5.5c-0.6,0-1.1-0.5-1.1-1.1v-4.8c0-0.6,0.5-1.1,1.1-1.1h5.5
		c0.3,0,0.6,0.1,0.8,0.3l2.3,2.4c0.4,0.4,0.4,1.1,0,1.6l-2.3,2.4C111.9,54.3,111.6,54.4,111.3,54.4z"/>
	<path id="XMLID_22_" class="st3" d="M119.6,55.6v5.5c0,0.6-0.5,1.1-1.1,1.1h-4.8c-0.6,0-1.1-0.5-1.1-1.1v-5.5
		c0-0.3,0.1-0.6,0.3-0.8l2.4-2.3c0.4-0.4,1.1-0.4,1.6,0l2.4,2.3C119.5,55,119.6,55.3,119.6,55.6z"/>
	<path id="XMLID_26_" class="st3" d="M120.9,47.3h5.5c0.6,0,1.1,0.5,1.1,1.1v4.8c0,0.6-0.5,1.1-1.1,1.1h-5.5c-0.3,0-0.6-0.1-0.8-0.3
		l-2.3-2.4c-0.4-0.4-0.4-1.1,0-1.6l2.3-2.4C120.4,47.5,120.6,47.3,120.9,47.3z"/>
	<path id="XMLID_25_" class="st3" d="M112.6,46.1v-5.5c0-0.6,0.5-1.1,1.1-1.1h4.8c0.6,0,1.1,0.5,1.1,1.1v5.5c0,0.3-0.1,0.6-0.3,0.8
		l-2.4,2.3c-0.4,0.4-1.1,0.4-1.6,0l-2.4-2.3C112.7,46.7,112.6,46.4,112.6,46.1z"/>
</g>
<g id="XMLID_28_">
	<circle id="XMLID_24_" class="st4" cx="160.9" cy="43.6" r="3.9"/>
	<circle id="XMLID_27_" class="st5" cx="168.2" cy="50.9" r="3.9"/>
	<circle id="XMLID_32_" class="st6" cx="160.9" cy="58.2" r="3.9"/>
	<circle id="XMLID_33_" class="st7" cx="153.6" cy="50.9" r="3.9"/>
</g>
</svg>
