<?xml version="1.0" encoding="utf-8"?>
<!-- Generator: Adobe Illustrator 19.0.0, SVG Export Plug-In . SVG Version: 6.00 Build 0)  -->
<svg version="1.1" id="Layer_1" xmlns="http://www.w3.org/2000/svg" xmlns:xlink="http://www.w3.org/1999/xlink" x="0px" y="0px"
	 viewBox="-189 347.4 232.7 99.6" style="enable-background:new -189 347.4 232.7 99.6;" xml:space="preserve">
<style type="text/css">
	.st0{display:none;}
	.st1{fill:#FFFFFF;}
	.st2{fill:#FFFFFF;stroke:#FFFFFF;stroke-miterlimit:10;}
</style>
<g id="Layer_2" class="st0">
	
		<image style="display:inline;overflow:visible;enable-background:new    ;" width="800" height="300" id="XMLID_1_" xlink:href="rocketleague.png"  transform="matrix(0.5852 0 0 0.5974 -559.1527 675.7728)">
	</image>
</g>
<g id="Layer_1_1_">
	<g id="XMLID_2_">
		<path id="XMLID_11_" class="st1" d="M-113.9,430.2c0,0-4,15.8-14.1,16.7c0,0-6.7,1.5-12.1-9.4
			C-140.1,437.6-126.3,434.2-113.9,430.2z"/>
		<path id="XMLID_5_" class="st1" d="M-41.5,397.3c0,0-14.4,8.6-23.5,12.7c0,0,13,8.1,21.1,1.6C-43.9,411.6-39.1,408.1-41.5,397.3z"
			/>
		<path id="XMLID_20_" class="st1" d="M-15,354.9c-6.9-11.8-54.4,2.4-54.4,2.4c-29.5-22.1-73.1-5.5-78,31.3
			c-47.9,26.4-40.8,37.5-40.8,37.5c8,17.7,80.6-9,80.6-9c12.1-16.6,29.8-12,29.8-12C-4.5,369.6-15,354.9-15,354.9z M-145.6,416.5
			c0,0-24.2,6.5-27.5-0.2c0,0-3.4-6,25.3-22.4C-147.8,393.8-147.7,407.5-145.6,416.5z M-131.9,385.7c-0.1-0.4,0.1-0.9,0.5-1l4.3-1.3
			c0.4-0.1,0.9,0.1,1,0.5l1.4,4.4c0.1,0.2,0,0.4,0,0.6l-1.4,2.9c-0.2,0.4-0.7,0.6-1.1,0.4l-2.8-1.6c-0.2-0.1-0.3-0.3-0.4-0.5
			L-131.9,385.7z M-129.7,397.9l-4.4,1.4c-0.4,0.1-0.9-0.1-1-0.5l-1.3-4.3c-0.1-0.4,0.1-0.9,0.5-1l4.4-1.4c0.2-0.1,0.4,0,0.6,0
			l2.9,1.4c0.4,0.2,0.6,0.7,0.4,1.1l-1.6,2.8C-129.4,397.7-129.5,397.8-129.7,397.9z M-120.5,401.5c0.1,0.4-0.1,0.9-0.5,1l-4.3,1.3
			c-0.4,0.1-0.9-0.1-1-0.5l-1.4-4.4c-0.1-0.2,0-0.4,0-0.6l1.4-2.9c0.2-0.4,0.7-0.6,1.1-0.4l2.8,1.6c0.2,0.1,0.3,0.3,0.4,0.5
			L-120.5,401.5z M-115.9,392.7c0.1,0.4-0.1,0.9-0.5,1l-4.4,1.4c-0.2,0.1-0.4,0-0.6,0l-2.9-1.4c-0.4-0.2-0.6-0.7-0.4-1.1l1.6-2.8
			c0.1-0.2,0.3-0.3,0.5-0.4l4.4-1.4c0.4-0.1,0.9,0.1,1,0.5L-115.9,392.7z M-85.4,365.1c1.6-0.7,3.5,0,4.3,1.6s0,3.5-1.6,4.3
			c-1.6,0.7-3.5,0-4.3-1.6C-87.7,367.7-87,365.8-85.4,365.1z M-85.8,379.5c-1.6,0.7-3.5,0-4.3-1.6c-0.7-1.6,0-3.5,1.6-4.3
			c1.6-0.7,3.5,0,4.3,1.6C-83.5,376.8-84.2,378.7-85.8,379.5z M-77.3,382.6c-1.6,0.7-3.5,0-4.3-1.6c-0.7-1.6,0-3.5,1.6-4.3
			c1.6-0.7,3.5,0,4.3,1.6C-75,380-75.7,381.9-77.3,382.6z M-74.2,374.1c-1.6,0.7-3.5,0-4.3-1.6c-0.7-1.6,0-3.5,1.6-4.3
			c1.6-0.7,3.5,0,4.3,1.6S-72.5,373.3-74.2,374.1z M-51.2,378.5c-4.2-7.2-9.5-14.5-14.6-18.3c0,0,28.9-8.1,33.9-1.7
			C-31.9,358.5-28.3,364.7-51.2,378.5z"/>
	</g>
</g>
<g>
	<path class="st2" d="M-100.2,436.9V420h2l6.9,12.6V420h2v16.9h-1.9l-7-12.8v12.8H-100.2z"/>
	<path class="st2" d="M-85.4,436.1c-0.7-0.7-1.1-1.7-1.1-3s0.4-2.2,1.1-2.9c0.7-0.7,1.6-1.1,2.6-1.1c1.4,0,2.5,0.5,3.2,1.6v-2.1
		c0-0.8-0.2-1.5-0.7-1.9c-0.4-0.5-1.1-0.7-1.9-0.7c-1.1,0-2.2,0.5-3.1,1.5l-0.8-1.3c1.1-1.2,2.5-1.8,4.2-1.8c1.2,0,2.2,0.3,2.9,1
		s1.1,1.7,1.1,3v8.5h-1.8v-1.3c-0.4,0.6-0.9,1-1.4,1.2c-0.6,0.3-1.2,0.4-1.8,0.4C-83.9,437.2-84.7,436.8-85.4,436.1z M-84,431.2
		c-0.4,0.5-0.7,1.2-0.7,1.9c0,0.8,0.2,1.4,0.7,1.9c0.4,0.5,1,0.8,1.8,0.8c0.5,0,1-0.1,1.5-0.4s0.8-0.6,1.1-1.1v-2.4
		c-0.3-0.5-0.7-0.9-1.1-1.2c-0.5-0.3-1-0.4-1.5-0.4C-83,430.4-83.6,430.7-84,431.2z"/>
	<path class="st2" d="M-75.1,430.8c0-1.9,0.5-3.4,1.4-4.6s2.2-1.8,3.7-1.8s2.6,0.5,3.5,1.6l-1,1.2c-0.6-0.8-1.4-1.2-2.3-1.2
		c-1,0-1.9,0.5-2.4,1.4s-0.9,2-0.9,3.4s0.3,2.5,0.9,3.4s1.4,1.4,2.4,1.4c0.9,0,1.7-0.4,2.3-1.2l1,1.2c-0.8,1.1-2,1.6-3.5,1.6
		c-1,0-1.9-0.3-2.7-0.9s-1.4-1.3-1.8-2.3C-74.9,433.1-75.1,432-75.1,430.8z"/>
	<path class="st2" d="M-64.2,436.9V420h1.8v6.4c0.4-0.6,0.9-1.1,1.5-1.5s1.3-0.6,2-0.6c1,0,1.8,0.3,2.3,0.8s0.8,1.4,0.8,2.5v9.2
		h-1.8v-8.7c0-0.8-0.2-1.3-0.5-1.7s-0.8-0.5-1.5-0.5c-0.6,0-1.1,0.2-1.6,0.6s-0.9,0.8-1.2,1.4v8.9h-1.8V436.9z"/>
	<path class="st2" d="M-53.7,426.3v-1.6h1.6v-3.3h1.8v3.3h2.1v1.6h-2.1v7.8c0,1,0.3,1.5,1,1.5c0.5,0,0.8-0.2,1.1-0.5l0.6,1.4
		c-0.5,0.5-1.2,0.7-2,0.7c-1.6,0-2.4-0.9-2.4-2.8v-8.2h-1.7V426.3z"/>
	<path class="st2" d="M-41.8,424.7h2l3.1,10l3.1-10h1.9l-4,12.2h-2L-41.8,424.7z"/>
	<path class="st2" d="M-29.6,436.1c-0.7-0.7-1.1-1.7-1.1-3s0.4-2.2,1.1-2.9c0.7-0.7,1.6-1.1,2.6-1.1c1.4,0,2.5,0.5,3.2,1.6v-2.1
		c0-0.8-0.2-1.5-0.7-1.9c-0.4-0.5-1.1-0.7-1.9-0.7c-1.1,0-2.2,0.5-3.1,1.5l-0.8-1.3c1.1-1.2,2.5-1.8,4.2-1.8c1.2,0,2.2,0.3,2.9,1
		s1.1,1.7,1.1,3v8.5h-1.8v-1.3c-0.4,0.6-0.9,1-1.4,1.2c-0.6,0.3-1.2,0.4-1.8,0.4C-28,437.2-28.9,436.8-29.6,436.1z M-28.2,431.2
		c-0.4,0.5-0.7,1.2-0.7,1.9c0,0.8,0.2,1.4,0.7,1.9c0.4,0.5,1,0.8,1.8,0.8c0.5,0,1-0.1,1.5-0.4s0.8-0.6,1.1-1.1v-2.4
		c-0.3-0.5-0.7-0.9-1.1-1.2c-0.5-0.3-1-0.4-1.5-0.4C-27.1,430.4-27.7,430.7-28.2,431.2z"/>
	<path class="st2" d="M-18.6,436.9v-12.2h1.8v1.7c0.4-0.6,0.9-1.1,1.5-1.5s1.3-0.6,2-0.6c2,0,3.1,1.1,3.1,3.3v9.2H-12v-8.7
		c0-0.8-0.2-1.4-0.5-1.7s-0.8-0.5-1.5-0.5c-0.6,0-1.1,0.2-1.6,0.6s-0.9,0.8-1.2,1.4v8.9h-1.8V436.9z"/>
	<path class="st2" d="M-1.1,433c-0.5-1.3-0.8-2.8-0.8-4.5s0.3-3.2,0.8-4.5s1.3-2.3,2.3-3.1c1-0.8,2.2-1.1,3.5-1.1
		c2.1,0,3.8,1.1,4.9,3.3l-1.7,0.8c-0.7-1.5-1.8-2.3-3.3-2.3c-1.4,0-2.4,0.6-3.3,1.9c-0.8,1.3-1.2,3-1.2,5s0.4,3.7,1.2,5
		s1.9,1.9,3.3,1.9c0.7,0,1.4-0.2,2-0.7s1-1.1,1.3-1.8l1.7,0.8c-0.3,0.5-0.5,1-0.8,1.4s-0.6,0.8-1,1.1c-0.4,0.3-0.9,0.6-1.4,0.8
		c-0.5,0.2-1.1,0.3-1.7,0.3c-1.3,0-2.5-0.4-3.5-1.1S-0.5,434.3-1.1,433z"/>
	<path class="st2" d="M12.1,433.9v-9.2h1.8v8.7c0,0.8,0.2,1.4,0.5,1.7c0.3,0.3,0.8,0.5,1.5,0.5c0.6,0,1.1-0.2,1.6-0.6
		s0.9-0.8,1.2-1.3v-9h1.8v12.2h-1.8v-1.7c-0.4,0.6-0.9,1-1.5,1.4s-1.3,0.6-2,0.6c-1,0-1.8-0.3-2.3-0.8
		C12.4,435.9,12.1,435,12.1,433.9z"/>
	<path class="st2" d="M23.9,422.6c-0.3-0.2-0.4-0.5-0.4-0.9c0-0.3,0.1-0.6,0.4-0.9c0.3-0.2,0.5-0.4,0.9-0.4c0.3,0,0.6,0.1,0.9,0.4
		c0.2,0.2,0.4,0.5,0.4,0.9c0,0.3-0.1,0.6-0.4,0.9c-0.2,0.2-0.5,0.4-0.9,0.4C24.4,422.9,24.1,422.8,23.9,422.6z M23.9,436.9v-12.2
		h1.8v12.2H23.9z"/>
	<path class="st2" d="M25.7,441l0.7-1.4c0.3,0.4,0.7,0.6,1.2,0.6c0.9,0,1.4-0.6,1.4-1.8v-13.7h1.8v13.7c0,2.3-1,3.5-3.1,3.5
		C26.9,441.9,26.2,441.6,25.7,441z M29,422.6c-0.3-0.2-0.4-0.5-0.4-0.9c0-0.3,0.1-0.6,0.4-0.9c0.3-0.2,0.5-0.4,0.9-0.4
		c0.3,0,0.6,0.1,0.9,0.4c0.2,0.2,0.4,0.5,0.4,0.9c0,0.3-0.1,0.6-0.4,0.9c-0.2,0.2-0.5,0.4-0.9,0.4C29.5,422.9,29.3,422.8,29,422.6z"
		/>
	<path class="st2" d="M34.1,436.9V420h1.8v11.3l5.1-6.6h2.1l-4.2,5.5l4.3,6.7h-2.1l-3.4-5.5l-1.7,2.2v3.3H34.1z"/>
</g>
</svg>
